<svg id="b0e3f109-ef67-4d17-b0d7-ec42e65cfe40" data-name="Layer 2" xmlns="http://www.w3.org/2000/svg" viewBox="0 0 410.83 324.33"><path d="M158.12,240a219.08,219.08,0,0,1,17.45,23.43c3,4.71,5.9,9.53,8.75,14.36l8.5,14.33c14.14,23.86,28.3,47.78,39.73,73.05a376.32,376.32,0,0,1,15.63,40.64" transform="translate(-44.59 -87.83)" style="fill:none;stroke:#4ca5b2;stroke-linecap:round;stroke-miterlimit:10;stroke-width:9px"/><path d="M70.54,369.51c11.17-5,12.46-5,21.8-11.2" transform="translate(-44.59 -87.83)" style="fill:none;stroke:#4ca5b2;stroke-linecap:round;stroke-miterlimit:10;stroke-width:9px"/><path d="M49.09,290.67,92,295.42" transform="translate(-44.59 -87.83)" style="fill:none;stroke:#4ca5b2;stroke-linecap:round;stroke-miterlimit:10;stroke-width:9px"/><path d="M70.54,215.59,90,227.08" transform="translate(-44.59 -87.83)" style="fill:none;stroke:#4ca5b2;stroke-linecap:round;stroke-miterlimit:10;stroke-width:9px"/><path d="M112.44,153.49l25,28.61" transform="translate(-44.59 -87.83)" style="fill:none;stroke:#4ca5b2;stroke-linecap:round;stroke-miterlimit:10;stroke-width:9px"/><path d="M176.16,114.44c2,.79,10.05,18.88,10.4,20.79" transform="translate(-44.59 -87.83)" style="fill:none;stroke:#4ca5b2;stroke-linecap:round;stroke-miterlimit:10;stroke-width:9px"/><path d="M249.51,92.33c1.46,14.74-.6,25.18.86,39.92" transform="translate(-44.59 -87.83)" style="fill:none;stroke:#4ca5b2;stroke-linecap:round;stroke-miterlimit:10;stroke-width:9px"/><path d="M316.77,135.23c1.34-2.63,6.77-18,8.51-20.79" transform="translate(-44.59 -87.83)" style="fill:none;stroke:#4ca5b2;stroke-linecap:round;stroke-miterlimit:10;stroke-width:9px"/><path d="M367.23,182.38c2.51-1.83,29.21-30.23,31.22-32.46" transform="translate(-44.59 -87.83)" style="fill:none;stroke:#4ca5b2;stroke-linecap:round;stroke-miterlimit:10;stroke-width:9px"/><path d="M415.93,224.71c4.16-.72,19.72-7.56,24.62-9.12" transform="translate(-44.59 -87.83)" style="fill:none;stroke:#4ca5b2;stroke-linecap:round;stroke-miterlimit:10;stroke-width:9px"/><path d="M415.06,295.6c10.74-1.73,22-4.68,35.85-6.9" transform="translate(-44.59 -87.83)" style="fill:none;stroke:#4ca5b2;stroke-linecap:round;stroke-miterlimit:10;stroke-width:9px"/><path d="M414.18,355.92l29.16,8.91" transform="translate(-44.59 -87.83)" style="fill:none;stroke:#4ca5b2;stroke-linecap:round;stroke-miterlimit:10;stroke-width:9px"/><path d="M310,369.51c5.66,1.56,13.82,12.47,14.93,18.23a16.21,16.21,0,0,1-6,15.63c-5.58,4.26-13.18,4.36-20.2,4.28l-81.55-.93c-12.18-.14-26.23-1.2-33.35-11.09a7.08,7.08,0,0,1-1.64-4.49c.14-1.87,2-17.6,9.06-21.63C168.22,349.26,150.4,336,124,320.24c-9.54-5.69-20.84-14.94-17-25.37,3.32-9.08,10.61-13.07,13-22.45,2.89-11.48-10.51-22.87-3.47-32.4,4.14-5.6,16.58-4.45,22.32-8.42,6.88-4.76,4.62-14.66,4.65-23s4.48-17.43,12.47-19.93c8.37-2.61,19.56,1.77,26.86-3.1,6.14-4.09,3.67-13.79,8.47-19.39,5.77-6.73,16.22-1.16,24.63,1.65,26.06,8.7,18.07-16.09,34.52-17.13,14.37-.91,19.91,13.84,25.76,16.73,17.78,8.79,19.71-11.54,30.06-8.37,14.45,4.42,10.1,23.68,19.07,28.27,6.32,3.25,24.38.79,30.35,6.55,6.29,6.08,5.4,25.09,8.61,33.23,2.65,6.69,14.29,5.71,21,12.94,10.35,11.22-7.69,31.46,2.37,42.93,3.28,3.73,8.92,4.54,12.46,8,6.38,6.29,2.49,17.69-4.38,23.44s-15.9,8.42-22.88,14c-4.18,3.37-21.36,10.65-27.89,15.52-21.87,16.34-36,23.47-34.85,25.53" transform="translate(-44.59 -87.83)" style="fill:none;stroke:#4ca5b2;stroke-linecap:round;stroke-miterlimit:10;stroke-width:9px"/><path d="M191.34,369.51c11.92,9.14,31.26,25.21,40.44,37.1" transform="translate(-44.59 -87.83)" style="fill:none;stroke:#4ca5b2;stroke-linecap:round;stroke-miterlimit:10;stroke-width:9px"/><path d="M316.77,363.5S284.42,388.94,279,405.39" transform="translate(-44.59 -87.83)" style="fill:none;stroke:#4ca5b2;stroke-linecap:round;stroke-miterlimit:10;stroke-width:9px"/><path d="M141.17,293.27A419.18,419.18,0,0,1,248,405.88" transform="translate(-44.59 -87.83)" style="fill:none;stroke:#4ca5b2;stroke-linecap:round;stroke-miterlimit:10;stroke-width:9px"/><path d="M249.51,202.79c-3.1,88.21-2.48,135,1.18,204.31" transform="translate(-44.59 -87.83)" style="fill:none;stroke:#4ca5b2;stroke-linecap:round;stroke-miterlimit:10;stroke-width:9px"/><path d="M297.25,216.87c-22.21,71.62-35.17,122.07-49.07,189" transform="translate(-44.59 -87.83)" style="fill:none;stroke:#4ca5b2;stroke-linecap:round;stroke-miterlimit:10;stroke-width:9px"/><path d="M344.14,243c-38.87,50.57-75.21,97.82-93.45,162.41" transform="translate(-44.59 -87.83)" style="fill:none;stroke:#4ca5b2;stroke-linecap:round;stroke-miterlimit:10;stroke-width:9px"/><path d="M364.24,293.05c-48.11,28.75-86.69,65-116.06,112.78" transform="translate(-44.59 -87.83)" style="fill:none;stroke:#4ca5b2;stroke-linecap:round;stroke-miterlimit:10;stroke-width:9px"/><path d="M203.15,215.59c21.85,58.59,35.62,124.89,45.56,186.62" transform="translate(-44.59 -87.83)" style="fill:none;stroke:#4ca5b2;stroke-linecap:round;stroke-miterlimit:10;stroke-width:9px"/></svg>