<svg xmlns="http://www.w3.org/2000/svg" xmlns:xlink="http://www.w3.org/1999/xlink" version="1.1" width="200" height="50" viewBox="0 0 200 50" xml:space="preserve">
<desc>Created with Fabric.js 3.5.0</desc>
<defs>
</defs>
<rect x="0" y="0" width="100%" height="100%" fill="rgba(255,255,255,0)"/>
<g transform="matrix(0.6056 0 0 0.6056 10.5956 25.0209)" id="223607">
<path style="stroke: rgb(71,75,84); stroke-width: 0; stroke-dasharray: none; stroke-linecap: butt; stroke-dashoffset: 0; stroke-linejoin: miter; stroke-miterlimit: 2; is-custom-font: none; font-file-url: none; fill: rgb(71,75,84); fill-rule: nonzero; opacity: 1;" transform=" translate(-368.3173, 27)" d="m 370.11725 -31.968 q 0.576 0.072 1.944 0.288 q 1.44 0.216 3.168 0.864 q 1.8 0.576 3.672 1.584 q 1.872 1.008 3.384 2.808 q 1.512 1.728 2.52 4.248 q 1.008 2.52 1.008 6.048 q 0 0.144 -0.144 1.44 q -0.072 1.224 -0.648 3.024 q -0.576 1.8 -1.728 3.816 q -1.152 2.016 -3.312 3.816 q -2.16 1.728 -5.472 2.88 q -3.24 1.152 -7.992 1.152 q -4.392 0 -8.352 -1.8 q -3.888 -1.872 -6.696 -5.112 l 7.344 -5.688 q 0 0.072 0.504 0.648 q 0.576 0.576 1.584 1.224 q 1.08 0.648 2.664 1.224 q 1.656 0.504 3.888 0.504 q 4.104 0 6.408 -2.088 q 2.304 -2.16 2.304 -5.04 q 0 -2.088 -0.864 -3.384 q -0.864 -1.368 -2.376 -2.16 q -1.44 -0.864 -3.384 -1.296 q -1.872 -0.504 -4.032 -0.936 q -0.576 -0.072 -1.944 -0.36 q -1.296 -0.288 -2.952 -0.936 q -1.584 -0.648 -3.384 -1.656 q -1.728 -1.08 -3.168 -2.664 q -1.368 -1.656 -2.304 -3.888 q -0.936 -2.304 -0.936 -5.4 q 0 -0.144 0.072 -1.296 q 0.144 -1.224 0.648 -2.88 q 0.576 -1.728 1.728 -3.672 q 1.224 -1.944 3.384 -3.528 q 2.16 -1.656 5.4 -2.736 q 3.312 -1.08 8.064 -1.08 q 4.392 0 8.352 1.872 q 3.96 1.872 6.768 5.112 l -7.344 5.688 q -0.792 -1.368 -2.232 -2.088 q -1.44 -0.792 -2.88 -1.152 q -1.728 -0.36 -3.672 -0.432 q -4.104 0 -6.408 1.656 q -2.304 1.584 -2.304 4.536 q 0 2.088 0.72 3.312 q 0.72 1.152 1.944 1.8 q 1.296 0.648 3.096 1.008 q 1.8 0.288 3.96 0.72 z" stroke-linecap="round"/>
</g>
<g transform="matrix(0.6056 0 0 0.6056 39.745 25.0209)" id="709704">
<path style="stroke: rgb(81,94,112); stroke-width: 0; stroke-dasharray: none; stroke-linecap: butt; stroke-dashoffset: 0; stroke-linejoin: miter; stroke-miterlimit: 2; is-custom-font: none; font-file-url: none; fill: rgb(81,94,112); fill-rule: nonzero; opacity: 1;" transform=" translate(-416.4459, 27)" d="m 434.48187 -45 h -27.072 v 13.464 h 23.04001 v 9 H 407.40987 V -9 h 27.072 v 9 h -36.072 v -54 h 36.072 v 9 z" stroke-linecap="round"/>
</g>
<g transform="matrix(0.6056 0 0 0.6056 72.3389 24.9991)" id="718985">
<path style="stroke: rgb(90,114,140); stroke-width: 0; stroke-dasharray: none; stroke-linecap: butt; stroke-dashoffset: 0; stroke-linejoin: miter; stroke-miterlimit: 2; is-custom-font: none; font-file-url: none; fill: rgb(90,114,140); fill-rule: nonzero; opacity: 1;" transform=" translate(-470.2625, 27.036)" d="M 470.2265 -54.072 L 497.2985 0 h -9.936 l -6.12 -10.944 h -21.96 L 454.1705 0 h -10.944 z m -5.976 33.984 h 12.96 l -6.984 -13.896 z" stroke-linecap="round"/>
</g>
<g transform="matrix(0.6056 0 0 0.6056 103.9425 25.0209)" id="738913">
<path style="stroke: rgb(100,133,168); stroke-width: 0; stroke-dasharray: none; stroke-linecap: butt; stroke-dashoffset: 0; stroke-linejoin: miter; stroke-miterlimit: 2; is-custom-font: none; font-file-url: none; fill: rgb(100,133,168); fill-rule: nonzero; opacity: 1;" transform=" translate(-522.4423, 27)" d="m 524.24225 -31.968 q 0.576 0.072 1.944 0.288 q 1.44 0.216 3.168 0.864 q 1.8 0.576 3.672 1.584 q 1.872 1.008 3.384 2.808 q 1.512 1.728 2.52 4.248 q 1.008 2.52 1.008 6.048 q 0 0.144 -0.144 1.44 q -0.072 1.224 -0.648 3.024 q -0.576 1.8 -1.728 3.816 q -1.152 2.016 -3.312 3.816 q -2.16 1.728 -5.472 2.88 q -3.24 1.152 -7.992 1.152 q -4.392 0 -8.352 -1.8 q -3.888 -1.872 -6.696 -5.112 l 7.344 -5.688 q 0 0.072 0.504 0.648 q 0.576 0.576 1.584 1.224 q 1.08 0.648 2.664 1.224 q 1.656 0.504 3.888 0.504 q 4.104 0 6.408 -2.088 q 2.304 -2.16 2.304 -5.04 q 0 -2.088 -0.864 -3.384 q -0.864 -1.368 -2.376 -2.16 q -1.44 -0.864 -3.384 -1.296 q -1.872 -0.504 -4.032 -0.936 q -0.576 -0.072 -1.944 -0.36 q -1.296 -0.288 -2.952 -0.936 q -1.584 -0.648 -3.384 -1.656 q -1.728 -1.08 -3.168 -2.664 q -1.368 -1.656 -2.304 -3.888 q -0.936 -2.304 -0.936 -5.4 q 0 -0.144 0.072 -1.296 q 0.144 -1.224 0.648 -2.88 q 0.576 -1.728 1.728 -3.672 q 1.224 -1.944 3.384 -3.528 q 2.16 -1.656 5.4 -2.736 q 3.312 -1.08 8.064 -1.08 q 4.392 0 8.352 1.872 q 3.96 1.872 6.768 5.112 l -7.344 5.688 q -0.792 -1.368 -2.232 -2.088 q -1.44 -0.792 -2.88 -1.152 q -1.728 -0.36 -3.672 -0.432 q -4.104 0 -6.408 1.656 q -2.304 1.584 -2.304 4.536 q 0 2.088 0.72 3.312 q 0.72 1.152 1.944 1.8 q 1.296 0.648 3.096 1.008 q 1.8 0.288 3.96 0.72 z" stroke-linecap="round"/>
</g>
<g transform="matrix(0.6056 0 0 0.6056 133.0918 25.0209)" id="457602">
<path style="stroke: rgb(110,152,196); stroke-width: 0; stroke-dasharray: none; stroke-linecap: butt; stroke-dashoffset: 0; stroke-linejoin: miter; stroke-miterlimit: 2; is-custom-font: none; font-file-url: none; fill: rgb(110,152,196); fill-rule: nonzero; opacity: 1;" transform=" translate(-570.5709, 27)" d="m 588.60687 -45 h -27.07199 v 13.464 h 23.04 v 9 h -23.04 V -9 h 27.07199 v 9 h -36.07199 v -54 h 36.07199 v 9 z" stroke-linecap="round"/>
</g>
<g transform="matrix(0.6056 0 0 0.6056 160.3662 24.9991)" id="132407">
<path style="stroke: rgb(119,172,224); stroke-width: 0; stroke-dasharray: none; stroke-linecap: butt; stroke-dashoffset: 0; stroke-linejoin: miter; stroke-miterlimit: 2; is-custom-font: none; font-file-url: none; fill: rgb(119,172,224); fill-rule: nonzero; opacity: 1;" transform=" translate(-615.6035, 27.036)" d="m 633.6395 -9 v 9 h -36.072 v -54.072 h 8.928 L 606.5675 -9 Z" stroke-linecap="round"/>
</g>
<g transform="matrix(0.6056 0 0 0.6056 185.6618 24.9991)" id="491352">
<path style="stroke: rgb(129,191,252); stroke-width: 0; stroke-dasharray: none; stroke-linecap: butt; stroke-dashoffset: 0; stroke-linejoin: miter; stroke-miterlimit: 2; is-custom-font: none; font-file-url: none; fill: rgb(129,191,252); fill-rule: nonzero; opacity: 1;" transform=" translate(-657.3691, 27.036)" d="m 675.40512 -9 v 9 h -36.072 v -54.072 h 8.928 l 0.072 45.072 z" stroke-linecap="round"/>
</g>
</svg>