<svg xmlns="http://www.w3.org/2000/svg" xmlns:xlink="http://www.w3.org/1999/xlink" version="1.1" width="200" height="50" viewBox="0 0 200 50" xml:space="preserve">
<desc>Created with Fabric.js 3.5.0</desc>
<defs>
</defs>
<rect x="0" y="0" width="100%" height="100%" fill="#ffffff"/>
<g transform="matrix(0.5302 0 0 0.5302 10.2764 15.3536)" id="223607">
<path style="stroke: rgb(71,75,84); stroke-width: 0; stroke-dasharray: none; stroke-linecap: butt; stroke-dashoffset: 0; stroke-linejoin: miter; stroke-miterlimit: 2; is-custom-font: none; font-file-url: none; fill: rgb(71,75,84); fill-rule: nonzero; opacity: 1;" transform=" translate(-368.3173, 27)" d="m 370.11725 -31.968 q 0.576 0.072 1.944 0.288 q 1.44 0.216 3.168 0.864 q 1.8 0.576 3.672 1.584 q 1.872 1.008 3.384 2.808 q 1.512 1.728 2.52 4.248 q 1.008 2.52 1.008 6.048 q 0 0.144 -0.144 1.44 q -0.072 1.224 -0.648 3.024 q -0.576 1.8 -1.728 3.816 q -1.152 2.016 -3.312 3.816 q -2.16 1.728 -5.472 2.88 q -3.24 1.152 -7.992 1.152 q -4.392 0 -8.352 -1.8 q -3.888 -1.872 -6.696 -5.112 l 7.344 -5.688 q 0 0.072 0.504 0.648 q 0.576 0.576 1.584 1.224 q 1.08 0.648 2.664 1.224 q 1.656 0.504 3.888 0.504 q 4.104 0 6.408 -2.088 q 2.304 -2.16 2.304 -5.04 q 0 -2.088 -0.864 -3.384 q -0.864 -1.368 -2.376 -2.16 q -1.44 -0.864 -3.384 -1.296 q -1.872 -0.504 -4.032 -0.936 q -0.576 -0.072 -1.944 -0.36 q -1.296 -0.288 -2.952 -0.936 q -1.584 -0.648 -3.384 -1.656 q -1.728 -1.08 -3.168 -2.664 q -1.368 -1.656 -2.304 -3.888 q -0.936 -2.304 -0.936 -5.4 q 0 -0.144 0.072 -1.296 q 0.144 -1.224 0.648 -2.88 q 0.576 -1.728 1.728 -3.672 q 1.224 -1.944 3.384 -3.528 q 2.16 -1.656 5.4 -2.736 q 3.312 -1.08 8.064 -1.08 q 4.392 0 8.352 1.872 q 3.96 1.872 6.768 5.112 l -7.344 5.688 q -0.792 -1.368 -2.232 -2.088 q -1.44 -0.792 -2.88 -1.152 q -1.728 -0.36 -3.672 -0.432 q -4.104 0 -6.408 1.656 q -2.304 1.584 -2.304 4.536 q 0 2.088 0.72 3.312 q 0.72 1.152 1.944 1.8 q 1.296 0.648 3.096 1.008 q 1.8 0.288 3.96 0.72 z" stroke-linecap="round"/>
</g>
<g transform="matrix(0.5302 0 0 0.5302 35.7938 15.3536)" id="709704">
<path style="stroke: rgb(81,94,112); stroke-width: 0; stroke-dasharray: none; stroke-linecap: butt; stroke-dashoffset: 0; stroke-linejoin: miter; stroke-miterlimit: 2; is-custom-font: none; font-file-url: none; fill: rgb(81,94,112); fill-rule: nonzero; opacity: 1;" transform=" translate(-416.4459, 27)" d="m 434.48187 -45 h -27.072 v 13.464 h 23.04001 v 9 H 407.40987 V -9 h 27.072 v 9 h -36.072 v -54 h 36.072 v 9 z" stroke-linecap="round"/>
</g>
<g transform="matrix(0.5302 0 0 0.5302 64.3271 15.3345)" id="718985">
<path style="stroke: rgb(90,114,140); stroke-width: 0; stroke-dasharray: none; stroke-linecap: butt; stroke-dashoffset: 0; stroke-linejoin: miter; stroke-miterlimit: 2; is-custom-font: none; font-file-url: none; fill: rgb(90,114,140); fill-rule: nonzero; opacity: 1;" transform=" translate(-470.2625, 27.036)" d="M 470.2265 -54.072 L 497.2985 0 h -9.936 l -6.12 -10.944 h -21.96 L 454.1705 0 h -10.944 z m -5.976 33.984 h 12.96 l -6.984 -13.896 z" stroke-linecap="round"/>
</g>
<g transform="matrix(0.5302 0 0 0.5302 91.9923 15.3536)" id="738913">
<path style="stroke: rgb(100,133,168); stroke-width: 0; stroke-dasharray: none; stroke-linecap: butt; stroke-dashoffset: 0; stroke-linejoin: miter; stroke-miterlimit: 2; is-custom-font: none; font-file-url: none; fill: rgb(100,133,168); fill-rule: nonzero; opacity: 1;" transform=" translate(-522.4423, 27)" d="m 524.24225 -31.968 q 0.576 0.072 1.944 0.288 q 1.44 0.216 3.168 0.864 q 1.8 0.576 3.672 1.584 q 1.872 1.008 3.384 2.808 q 1.512 1.728 2.52 4.248 q 1.008 2.52 1.008 6.048 q 0 0.144 -0.144 1.44 q -0.072 1.224 -0.648 3.024 q -0.576 1.8 -1.728 3.816 q -1.152 2.016 -3.312 3.816 q -2.16 1.728 -5.472 2.88 q -3.24 1.152 -7.992 1.152 q -4.392 0 -8.352 -1.8 q -3.888 -1.872 -6.696 -5.112 l 7.344 -5.688 q 0 0.072 0.504 0.648 q 0.576 0.576 1.584 1.224 q 1.08 0.648 2.664 1.224 q 1.656 0.504 3.888 0.504 q 4.104 0 6.408 -2.088 q 2.304 -2.16 2.304 -5.04 q 0 -2.088 -0.864 -3.384 q -0.864 -1.368 -2.376 -2.16 q -1.44 -0.864 -3.384 -1.296 q -1.872 -0.504 -4.032 -0.936 q -0.576 -0.072 -1.944 -0.36 q -1.296 -0.288 -2.952 -0.936 q -1.584 -0.648 -3.384 -1.656 q -1.728 -1.08 -3.168 -2.664 q -1.368 -1.656 -2.304 -3.888 q -0.936 -2.304 -0.936 -5.4 q 0 -0.144 0.072 -1.296 q 0.144 -1.224 0.648 -2.88 q 0.576 -1.728 1.728 -3.672 q 1.224 -1.944 3.384 -3.528 q 2.16 -1.656 5.4 -2.736 q 3.312 -1.08 8.064 -1.08 q 4.392 0 8.352 1.872 q 3.96 1.872 6.768 5.112 l -7.344 5.688 q -0.792 -1.368 -2.232 -2.088 q -1.44 -0.792 -2.88 -1.152 q -1.728 -0.36 -3.672 -0.432 q -4.104 0 -6.408 1.656 q -2.304 1.584 -2.304 4.536 q 0 2.088 0.72 3.312 q 0.72 1.152 1.944 1.8 q 1.296 0.648 3.096 1.008 q 1.8 0.288 3.96 0.72 z" stroke-linecap="round"/>
</g>
<g transform="matrix(0.5302 0 0 0.5302 117.5098 15.3536)" id="457602">
<path style="stroke: rgb(110,152,196); stroke-width: 0; stroke-dasharray: none; stroke-linecap: butt; stroke-dashoffset: 0; stroke-linejoin: miter; stroke-miterlimit: 2; is-custom-font: none; font-file-url: none; fill: rgb(110,152,196); fill-rule: nonzero; opacity: 1;" transform=" translate(-570.5709, 27)" d="m 588.60687 -45 h -27.07199 v 13.464 h 23.04 v 9 h -23.04 V -9 h 27.07199 v 9 h -36.07199 v -54 h 36.07199 v 9 z" stroke-linecap="round"/>
</g>
<g transform="matrix(0.5302 0 0 0.5302 141.3857 15.3345)" id="132407">
<path style="stroke: rgb(119,172,224); stroke-width: 0; stroke-dasharray: none; stroke-linecap: butt; stroke-dashoffset: 0; stroke-linejoin: miter; stroke-miterlimit: 2; is-custom-font: none; font-file-url: none; fill: rgb(119,172,224); fill-rule: nonzero; opacity: 1;" transform=" translate(-615.6035, 27.036)" d="m 633.6395 -9 v 9 h -36.072 v -54.072 h 8.928 L 606.5675 -9 Z" stroke-linecap="round"/>
</g>
<g transform="matrix(0.5302 0 0 0.5302 163.5296 15.3345)" id="491352">
<path style="stroke: rgb(129,191,252); stroke-width: 0; stroke-dasharray: none; stroke-linecap: butt; stroke-dashoffset: 0; stroke-linejoin: miter; stroke-miterlimit: 2; is-custom-font: none; font-file-url: none; fill: rgb(129,191,252); fill-rule: nonzero; opacity: 1;" transform=" translate(-657.3691, 27.036)" d="m 675.40512 -9 v 9 h -36.072 v -54.072 h 8.928 l 0.072 45.072 z" stroke-linecap="round"/>
</g>
<g transform="matrix(1 0 0 1 99.7379 41.341)" style="" id="106123">
		
<path xml:space="preserve" font-family="Actor" font-size="14" font-style="normal" font-weight="normal" style="stroke: none; stroke-width: 1; stroke-dasharray: none; stroke-linecap: butt; stroke-dashoffset: 0; stroke-linejoin: miter; stroke-miterlimit: 4; is-custom-font: none; font-file-url: none; fill: rgb(0,0,0); fill-rule: nonzero; opacity: 1; white-space: pre;" d="M-98.01 4.40L-98.01-5.15L-95.46-5.15Q-93.95-5.15-93.27-4.59Q-92.59-4.03-92.59-2.88L-92.59-2.88Q-92.59-2.35-92.73-1.96Q-92.88-1.57-93.06-1.30L-93.06-1.30Q-93.27-0.99-93.53-0.77L-93.53-0.77Q-93.19-0.64-92.90-0.45Q-92.60-0.25-92.38 0.03Q-92.15 0.31-92.02 0.69Q-91.89 1.08-91.89 1.60L-91.89 1.60Q-91.89 2.17-92.04 2.68Q-92.20 3.19-92.56 3.57Q-92.92 3.95-93.53 4.17Q-94.13 4.40-95.02 4.40L-95.02 4.40L-98.01 4.40ZM-96.83-4.10L-96.83-1.01L-94.49-1.01Q-94.30-1.16-94.14-1.41L-94.14-1.41Q-94.00-1.62-93.89-1.94Q-93.78-2.25-93.78-2.70L-93.78-2.70Q-93.78-3.53-94.20-3.81Q-94.63-4.10-95.40-4.10L-95.40-4.10L-96.83-4.10ZM-96.83-0.03L-96.83 3.35L-94.93 3.35Q-94.00 3.35-93.54 2.87Q-93.08 2.40-93.08 1.60L-93.08 1.60Q-93.08 1.25-93.17 0.95Q-93.26 0.66-93.48 0.44Q-93.71 0.23-94.09 0.10Q-94.46-0.03-95.02-0.03L-95.02-0.03L-96.83-0.03Z"/><path xml:space="preserve" font-family="Actor" font-size="14" font-style="normal" font-weight="normal" style="stroke: none; stroke-width: 1; stroke-dasharray: none; stroke-linecap: butt; stroke-dashoffset: 0; stroke-linejoin: miter; stroke-miterlimit: 4; is-custom-font: none; font-file-url: none; fill: rgb(0,0,0); fill-rule: nonzero; opacity: 1; white-space: pre;" d="M-83.42 4.51L-83.50 3.63L-83.53 3.63Q-83.66 3.73-83.89 3.89Q-84.13 4.05-84.44 4.20Q-84.75 4.36-85.12 4.47Q-85.49 4.58-85.87 4.58L-85.87 4.58Q-86.39 4.58-86.75 4.45Q-87.11 4.31-87.34 4.01Q-87.56 3.70-87.66 3.19Q-87.76 2.69-87.76 1.93L-87.76 1.93L-87.76-2.64L-86.64-2.64L-86.64 1.77Q-86.64 2.19-86.62 2.52Q-86.61 2.86-86.53 3.10Q-86.44 3.33-86.25 3.47Q-86.06 3.60-85.71 3.60L-85.71 3.60Q-85.35 3.60-84.96 3.45Q-84.57 3.29-84.24 3.10L-84.24 3.10Q-83.87 2.87-83.50 2.59L-83.50 2.59L-83.50-2.64L-82.38-2.64L-82.38 3.49Q-82.37 3.99-82.31 4.40L-82.31 4.40L-83.42 4.51Z"/><path xml:space="preserve" font-family="Actor" font-size="14" font-style="normal" font-weight="normal" style="stroke: none; stroke-width: 1; stroke-dasharray: none; stroke-linecap: butt; stroke-dashoffset: 0; stroke-linejoin: miter; stroke-miterlimit: 4; is-custom-font: none; font-file-url: none; fill: rgb(0,0,0); fill-rule: nonzero; opacity: 1; white-space: pre;" d="M-75.98 4.22L-78.80-2.64L-77.61-2.64L-76.29 0.53Q-76.10 1.00-75.93 1.46Q-75.77 1.92-75.65 2.28L-75.65 2.28Q-75.49 2.72-75.38 3.12L-75.38 3.12L-75.37 3.12Q-75.24 2.72-75.09 2.28L-75.09 2.28Q-74.96 1.92-74.79 1.46Q-74.63 1.00-74.44 0.53L-74.44 0.53L-73.23-2.64L-72.05-2.64L-75.38 5.76Q-75.58 6.27-75.89 6.65Q-76.21 7.03-76.50 7.28L-76.50 7.28Q-76.85 7.58-77.23 7.79L-77.23 7.79L-77.78 6.82Q-77.48 6.68-77.23 6.47L-77.23 6.47Q-77.01 6.29-76.78 6.01Q-76.56 5.74-76.42 5.36L-76.42 5.36L-75.98 4.22Z"/><path xml:space="preserve" font-family="Actor" font-size="14" font-style="normal" font-weight="normal" style="stroke: none; stroke-width: 1; stroke-dasharray: none; stroke-linecap: butt; stroke-dashoffset: 0; stroke-linejoin: miter; stroke-miterlimit: 4; is-custom-font: none; font-file-url: none; fill: rgb(0,0,0); fill-rule: nonzero; opacity: 1; white-space: pre;" d=""/><path xml:space="preserve" font-family="Actor" font-size="14" font-style="normal" font-weight="normal" style="stroke: none; stroke-width: 1; stroke-dasharray: none; stroke-linecap: butt; stroke-dashoffset: 0; stroke-linejoin: miter; stroke-miterlimit: 4; is-custom-font: none; font-file-url: none; fill: rgb(0,0,0); fill-rule: nonzero; opacity: 1; white-space: pre;" d="M-61.65 4.40L-63.55-2.64L-62.38-2.64L-61.55 0.53Q-61.44 0.94-61.35 1.39Q-61.26 1.85-61.17 2.24L-61.17 2.24Q-61.09 2.70-60.99 3.15L-60.99 3.15L-60.98 3.15Q-60.88 2.70-60.75 2.24L-60.75 2.24Q-60.64 1.85-60.51 1.39Q-60.39 0.94-60.26 0.53L-60.26 0.53L-59.27-2.64L-57.77-2.64L-56.97 0.53Q-56.87 0.94-56.77 1.39Q-56.66 1.85-56.59 2.24L-56.59 2.24Q-56.51 2.70-56.43 3.15L-56.43 3.15L-56.41 3.15Q-56.29 2.69-56.15 2.23L-56.15 2.23Q-56.03 1.84-55.89 1.38Q-55.75 0.93-55.63 0.53L-55.63 0.53L-54.65-2.64L-53.49-2.64L-55.80 4.40L-57.04 4.40L-58.05 0.53Q-58.19 0.00-58.28-0.43Q-58.37-0.85-58.44-1.15L-58.44-1.15Q-58.51-1.50-58.57-1.76L-58.57-1.76L-58.60-1.76Q-58.65-1.50-58.74-1.15L-58.74-1.15Q-58.81-0.85-58.93-0.43Q-59.06 0.00-59.21 0.53L-59.21 0.53L-60.40 4.40L-61.65 4.40Z"/><path xml:space="preserve" font-family="Actor" font-size="14" font-style="normal" font-weight="normal" style="stroke: none; stroke-width: 1; stroke-dasharray: none; stroke-linecap: butt; stroke-dashoffset: 0; stroke-linejoin: miter; stroke-miterlimit: 4; is-custom-font: none; font-file-url: none; fill: rgb(0,0,0); fill-rule: nonzero; opacity: 1; white-space: pre;" d="M-49.83 4.40L-49.83-2.66L-48.71-2.78L-48.71 4.40L-49.83 4.40ZM-50.01-4.66L-50.01-4.66Q-50.01-4.98-49.80-5.20Q-49.58-5.42-49.26-5.42L-49.26-5.42Q-48.92-5.42-48.69-5.20Q-48.46-4.98-48.46-4.66L-48.46-4.66Q-48.46-4.34-48.69-4.12Q-48.92-3.90-49.26-3.90L-49.26-3.90Q-49.58-3.90-49.80-4.12Q-50.01-4.34-50.01-4.66Z"/><path xml:space="preserve" font-family="Actor" font-size="14" font-style="normal" font-weight="normal" style="stroke: none; stroke-width: 1; stroke-dasharray: none; stroke-linecap: butt; stroke-dashoffset: 0; stroke-linejoin: miter; stroke-miterlimit: 4; is-custom-font: none; font-file-url: none; fill: rgb(0,0,0); fill-rule: nonzero; opacity: 1; white-space: pre;" d="M-43.71-4.60L-42.59-4.74L-42.59-2.64L-40.56-2.64L-40.56-1.73L-42.59-1.73L-42.59 2.00Q-42.59 2.47-42.57 2.77Q-42.55 3.08-42.48 3.26Q-42.41 3.45-42.29 3.52Q-42.16 3.60-41.96 3.60L-41.96 3.60Q-41.43 3.59-40.73 3.21L-40.73 3.21L-40.40 4.06Q-40.86 4.37-41.26 4.47Q-41.66 4.58-42.05 4.58L-42.05 4.58Q-42.97 4.58-43.34 4.05Q-43.71 3.53-43.71 2.31L-43.71 2.31L-43.71-1.73L-45.00-1.73L-45.00-2.64L-43.71-2.64L-43.71-4.60Z"/><path xml:space="preserve" font-family="Actor" font-size="14" font-style="normal" font-weight="normal" style="stroke: none; stroke-width: 1; stroke-dasharray: none; stroke-linecap: butt; stroke-dashoffset: 0; stroke-linejoin: miter; stroke-miterlimit: 4; is-custom-font: none; font-file-url: none; fill: rgb(0,0,0); fill-rule: nonzero; opacity: 1; white-space: pre;" d="M-36.67 4.40L-36.67-6.09L-35.55-6.21L-35.55-1.76Q-35.13-2.04-34.72-2.25Q-34.31-2.46-33.87-2.62Q-33.44-2.78-33.03-2.78L-33.03-2.78Q-32.46-2.78-32.07-2.65Q-31.69-2.52-31.45-2.21Q-31.21-1.90-31.11-1.40Q-31.00-0.89-31.00-0.14L-31.00-0.14L-31.00 4.40L-32.12 4.40L-32.12-0.01Q-32.12-0.43-32.14-0.76Q-32.15-1.09-32.25-1.32Q-32.36-1.55-32.58-1.68Q-32.79-1.80-33.19-1.80L-33.19-1.80Q-33.55-1.80-33.97-1.64Q-34.39-1.48-34.77-1.27Q-35.15-1.06-35.55-0.78L-35.55-0.78L-35.55 4.40L-36.67 4.40Z"/><path xml:space="preserve" font-family="Actor" font-size="14" font-style="normal" font-weight="normal" style="stroke: none; stroke-width: 1; stroke-dasharray: none; stroke-linecap: butt; stroke-dashoffset: 0; stroke-linejoin: miter; stroke-miterlimit: 4; is-custom-font: none; font-file-url: none; fill: rgb(0,0,0); fill-rule: nonzero; opacity: 1; white-space: pre;" d=""/><path xml:space="preserve" font-family="Actor" font-size="14" font-style="normal" font-weight="normal" style="stroke: none; stroke-width: 1; stroke-dasharray: none; stroke-linecap: butt; stroke-dashoffset: 0; stroke-linejoin: miter; stroke-miterlimit: 4; is-custom-font: none; font-file-url: none; fill: rgb(0,0,0); fill-rule: nonzero; opacity: 1; white-space: pre;" d="M-16.30-2.56L-16.53-1.62Q-16.76-1.68-17.18-1.74Q-17.60-1.80-18.04-1.80L-18.04-1.80Q-18.67-1.80-19.07-1.55Q-19.47-1.30-19.69-0.90Q-19.91-0.50-20.00-0.02Q-20.08 0.46-20.08 0.93L-20.08 0.93Q-20.08 1.64-19.90 2.15Q-19.72 2.66-19.42 2.98Q-19.12 3.31-18.72 3.45Q-18.33 3.60-17.90 3.60L-17.90 3.60Q-17.60 3.60-17.33 3.56Q-17.06 3.53-16.83 3.48Q-16.60 3.43-16.39 3.36L-16.39 3.36L-16.16 4.30Q-16.46 4.38-16.71 4.44Q-16.96 4.50-17.30 4.54Q-17.65 4.58-18.04 4.58L-18.04 4.58Q-18.81 4.58-19.41 4.38Q-20.01 4.19-20.42 3.75Q-20.84 3.32-21.05 2.62Q-21.27 1.92-21.27 0.91L-21.27 0.91Q-21.27-0.07-21.00-0.78Q-20.73-1.48-20.28-1.92Q-19.83-2.36-19.25-2.57Q-18.67-2.78-18.04-2.78L-18.04-2.78Q-17.70-2.78-17.39-2.75Q-17.07-2.71-16.83-2.67L-16.83-2.67Q-16.55-2.62-16.30-2.56L-16.30-2.56Z"/><path xml:space="preserve" font-family="Actor" font-size="14" font-style="normal" font-weight="normal" style="stroke: none; stroke-width: 1; stroke-dasharray: none; stroke-linecap: butt; stroke-dashoffset: 0; stroke-linejoin: miter; stroke-miterlimit: 4; is-custom-font: none; font-file-url: none; fill: rgb(0,0,0); fill-rule: nonzero; opacity: 1; white-space: pre;" d="M-11.68 0.91L-11.68 0.91Q-11.68 2.27-11.07 2.93Q-10.46 3.60-9.43 3.60L-9.43 3.60Q-8.41 3.60-7.83 2.94Q-7.26 2.28-7.26 0.97L-7.26 0.97Q-7.26-0.43-7.87-1.12Q-8.48-1.80-9.53-1.80L-9.53-1.80Q-10.58-1.80-11.13-1.13Q-11.68-0.45-11.68 0.91ZM-12.87 0.90L-12.87 0.90Q-12.87-0.17-12.54-0.87Q-12.20-1.58-11.68-2.01Q-11.16-2.43-10.57-2.61Q-9.97-2.78-9.44-2.78L-9.44-2.78Q-8.94-2.78-8.34-2.62Q-7.75-2.46-7.24-2.05Q-6.74-1.64-6.40-0.94Q-6.07-0.25-6.07 0.81L-6.07 0.81Q-6.07 1.92-6.41 2.65Q-6.75 3.38-7.27 3.80Q-7.79 4.23-8.39 4.40Q-8.99 4.58-9.51 4.58L-9.51 4.58Q-10.04 4.58-10.63 4.41Q-11.22 4.24-11.72 3.83Q-12.21 3.42-12.54 2.70Q-12.87 1.99-12.87 0.90Z"/><path xml:space="preserve" font-family="Actor" font-size="14" font-style="normal" font-weight="normal" style="stroke: none; stroke-width: 1; stroke-dasharray: none; stroke-linecap: butt; stroke-dashoffset: 0; stroke-linejoin: miter; stroke-miterlimit: 4; is-custom-font: none; font-file-url: none; fill: rgb(0,0,0); fill-rule: nonzero; opacity: 1; white-space: pre;" d="M-1.97 4.40L-1.97-1.24Q-1.95-1.54-2.04-2.52L-2.04-2.52L-1.00-2.66L-0.85-1.76Q-0.43-2.04-0.01-2.25Q0.40-2.46 0.83-2.62Q1.27-2.78 1.67-2.78L1.67-2.78Q2.25-2.78 2.63-2.65Q3.02-2.52 3.26-2.21Q3.49-1.90 3.60-1.40Q3.70-0.89 3.70-0.14L3.70-0.14L3.70 4.40L2.58 4.40L2.58-0.01Q2.58-0.43 2.57-0.76Q2.56-1.09 2.45-1.32Q2.35-1.55 2.13-1.68Q1.91-1.80 1.52-1.80L1.52-1.80Q1.16-1.80 0.75-1.64Q0.34-1.48-0.05-1.27Q-0.44-1.06-0.85-0.78L-0.85-0.78L-0.85 4.40L-1.97 4.40Z"/><path xml:space="preserve" font-family="Actor" font-size="14" font-style="normal" font-weight="normal" style="stroke: none; stroke-width: 1; stroke-dasharray: none; stroke-linecap: butt; stroke-dashoffset: 0; stroke-linejoin: miter; stroke-miterlimit: 4; is-custom-font: none; font-file-url: none; fill: rgb(0,0,0); fill-rule: nonzero; opacity: 1; white-space: pre;" d="M8.74 4.40L8.74-1.73L7.44-1.73L7.44-2.64L8.74-2.64Q8.74-3.62 8.88-4.30Q9.01-4.98 9.30-5.41Q9.60-5.84 10.06-6.03Q10.52-6.21 11.18-6.21L11.18-6.21Q11.71-6.21 12.17-6.04Q12.64-5.86 12.92-5.61L12.92-5.61L12.43-4.77Q12.15-4.98 11.85-5.11Q11.54-5.23 11.19-5.23L11.19-5.23Q10.73-5.23 10.47-5.03Q10.20-4.83 10.07-4.48Q9.93-4.13 9.90-3.66Q9.86-3.19 9.86-2.64L9.86-2.64L11.61-2.64L11.61-1.73L9.86-1.73L9.86 4.40L8.74 4.40Z"/><path xml:space="preserve" font-family="Actor" font-size="14" font-style="normal" font-weight="normal" style="stroke: none; stroke-width: 1; stroke-dasharray: none; stroke-linecap: butt; stroke-dashoffset: 0; stroke-linejoin: miter; stroke-miterlimit: 4; is-custom-font: none; font-file-url: none; fill: rgb(0,0,0); fill-rule: nonzero; opacity: 1; white-space: pre;" d="M15.87 4.40L15.87-2.66L16.99-2.78L16.99 4.40L15.87 4.40ZM15.69-4.66L15.69-4.66Q15.69-4.98 15.91-5.20Q16.12-5.42 16.44-5.42L16.44-5.42Q16.78-5.42 17.01-5.20Q17.24-4.98 17.24-4.66L17.24-4.66Q17.24-4.34 17.01-4.12Q16.78-3.90 16.44-3.90L16.44-3.90Q16.12-3.90 15.91-4.12Q15.69-4.34 15.69-4.66Z"/><path xml:space="preserve" font-family="Actor" font-size="14" font-style="normal" font-weight="normal" style="stroke: none; stroke-width: 1; stroke-dasharray: none; stroke-linecap: butt; stroke-dashoffset: 0; stroke-linejoin: miter; stroke-miterlimit: 4; is-custom-font: none; font-file-url: none; fill: rgb(0,0,0); fill-rule: nonzero; opacity: 1; white-space: pre;" d="M25.87 2.86L25.87-1.59Q25.36-1.73 25.08-1.77Q24.80-1.80 24.51-1.80L24.51-1.80Q23.92-1.80 23.50-1.59Q23.08-1.38 22.81-1.01Q22.53-0.64 22.41-0.16Q22.28 0.32 22.28 0.87L22.28 0.87Q22.28 1.36 22.39 1.85Q22.49 2.34 22.72 2.73Q22.94 3.12 23.26 3.36Q23.58 3.60 24.03 3.60L24.03 3.60Q24.34 3.60 24.67 3.49Q25.00 3.38 25.28 3.23Q25.56 3.08 25.87 2.86L25.87 2.86ZM25.99 4.51L25.88 3.84Q25.56 4.06 25.26 4.21Q24.96 4.36 24.60 4.47Q24.24 4.58 23.91 4.58L23.91 4.58Q22.59 4.58 21.84 3.65Q21.09 2.72 21.09 0.93L21.09 0.93Q21.09-0.14 21.44-0.85Q21.78-1.57 22.30-1.99Q22.81-2.42 23.41-2.60Q24.00-2.78 24.51-2.78L24.51-2.78Q24.76-2.78 25.04-2.75Q25.32-2.71 25.87-2.57L25.87-2.57L25.87-6.09L26.99-6.21L26.99 3.12Q26.99 3.32 26.99 3.54Q27.00 3.75 27.02 3.96Q27.04 4.17 27.07 4.40L27.07 4.40L25.99 4.51Z"/><path xml:space="preserve" font-family="Actor" font-size="14" font-style="normal" font-weight="normal" style="stroke: none; stroke-width: 1; stroke-dasharray: none; stroke-linecap: butt; stroke-dashoffset: 0; stroke-linejoin: miter; stroke-miterlimit: 4; is-custom-font: none; font-file-url: none; fill: rgb(0,0,0); fill-rule: nonzero; opacity: 1; white-space: pre;" d="M36.48 3.29L36.69 4.23Q36.37 4.33 36.02 4.40Q35.68 4.47 35.27 4.52Q34.85 4.58 34.41 4.58L34.41 4.58Q33.71 4.58 33.10 4.38Q32.50 4.19 32.05 3.75Q31.61 3.32 31.35 2.63Q31.09 1.93 31.09 0.93L31.09 0.93Q31.09 0.02 31.34-0.68Q31.59-1.37 32.03-1.84Q32.47-2.31 33.07-2.55Q33.66-2.78 34.36-2.78L34.36-2.78Q35.05-2.78 35.55-2.52Q36.06-2.25 36.39-1.80Q36.72-1.34 36.88-0.73Q37.04-0.12 37.04 0.55L37.04 0.55L36.83 1.16L32.31 1.16Q32.31 1.60 32.42 2.03Q32.53 2.47 32.80 2.82Q33.08 3.17 33.52 3.38Q33.96 3.60 34.62 3.60L34.62 3.60Q35.04 3.60 35.39 3.55Q35.74 3.50 36.00 3.44Q36.25 3.38 36.48 3.29L36.48 3.29ZM32.35 0.27L35.88 0.27Q35.88 0.17 35.83-0.17Q35.79-0.50 35.64-0.87Q35.48-1.23 35.16-1.52Q34.84-1.80 34.31-1.80L34.31-1.80Q33.72-1.80 33.34-1.56Q32.96-1.31 32.74-0.98Q32.52-0.64 32.43-0.29Q32.35 0.06 32.35 0.27L32.35 0.27Z"/><path xml:space="preserve" font-family="Actor" font-size="14" font-style="normal" font-weight="normal" style="stroke: none; stroke-width: 1; stroke-dasharray: none; stroke-linecap: butt; stroke-dashoffset: 0; stroke-linejoin: miter; stroke-miterlimit: 4; is-custom-font: none; font-file-url: none; fill: rgb(0,0,0); fill-rule: nonzero; opacity: 1; white-space: pre;" d="M41.04 4.40L41.04-1.24Q41.06-1.54 40.97-2.52L40.97-2.52L42.01-2.66L42.16-1.76Q42.58-2.04 43.00-2.25Q43.41-2.46 43.84-2.62Q44.28-2.78 44.68-2.78L44.68-2.78Q45.26-2.78 45.64-2.65Q46.03-2.52 46.26-2.21Q46.50-1.90 46.61-1.40Q46.71-0.89 46.71-0.14L46.71-0.14L46.71 4.40L45.59 4.40L45.59-0.01Q45.59-0.43 45.58-0.76Q45.56-1.09 45.46-1.32Q45.35-1.55 45.14-1.68Q44.92-1.80 44.53-1.80L44.53-1.80Q44.16-1.80 43.76-1.64Q43.35-1.48 42.96-1.27Q42.57-1.06 42.16-0.78L42.16-0.78L42.16 4.40L41.04 4.40Z"/><path xml:space="preserve" font-family="Actor" font-size="14" font-style="normal" font-weight="normal" style="stroke: none; stroke-width: 1; stroke-dasharray: none; stroke-linecap: butt; stroke-dashoffset: 0; stroke-linejoin: miter; stroke-miterlimit: 4; is-custom-font: none; font-file-url: none; fill: rgb(0,0,0); fill-rule: nonzero; opacity: 1; white-space: pre;" d="M55.74-2.56L55.52-1.62Q55.28-1.68 54.86-1.74Q54.44-1.80 54.01-1.80L54.01-1.80Q53.38-1.80 52.98-1.55Q52.58-1.30 52.35-0.90Q52.13-0.50 52.05-0.02Q51.96 0.46 51.96 0.93L51.96 0.93Q51.96 1.64 52.14 2.15Q52.33 2.66 52.63 2.98Q52.93 3.31 53.32 3.45Q53.71 3.60 54.15 3.60L54.15 3.60Q54.44 3.60 54.71 3.56Q54.99 3.53 55.22 3.48Q55.45 3.43 55.66 3.36L55.66 3.36L55.88 4.30Q55.59 4.38 55.34 4.44Q55.08 4.50 54.74 4.54Q54.40 4.58 54.01 4.58L54.01 4.58Q53.24 4.58 52.63 4.38Q52.03 4.19 51.62 3.75Q51.21 3.32 50.99 2.62Q50.77 1.92 50.77 0.91L50.77 0.91Q50.77-0.07 51.05-0.78Q51.32-1.48 51.77-1.92Q52.21-2.36 52.80-2.57Q53.38-2.78 54.01-2.78L54.01-2.78Q54.34-2.78 54.66-2.75Q54.97-2.71 55.21-2.67L55.21-2.67Q55.49-2.62 55.74-2.56L55.74-2.56Z"/><path xml:space="preserve" font-family="Actor" font-size="14" font-style="normal" font-weight="normal" style="stroke: none; stroke-width: 1; stroke-dasharray: none; stroke-linecap: butt; stroke-dashoffset: 0; stroke-linejoin: miter; stroke-miterlimit: 4; is-custom-font: none; font-file-url: none; fill: rgb(0,0,0); fill-rule: nonzero; opacity: 1; white-space: pre;" d="M64.56 3.29L64.77 4.23Q64.45 4.33 64.11 4.40Q63.76 4.47 63.35 4.52Q62.94 4.58 62.49 4.58L62.49 4.58Q61.79 4.58 61.19 4.38Q60.59 4.19 60.14 3.75Q59.69 3.32 59.43 2.63Q59.17 1.93 59.17 0.93L59.17 0.93Q59.17 0.02 59.42-0.68Q59.68-1.37 60.12-1.84Q60.56-2.31 61.15-2.55Q61.75-2.78 62.45-2.78L62.45-2.78Q63.13-2.78 63.64-2.52Q64.14-2.25 64.47-1.80Q64.80-1.34 64.96-0.73Q65.12-0.12 65.12 0.55L65.12 0.55L64.91 1.16L60.39 1.16Q60.39 1.60 60.50 2.03Q60.61 2.47 60.89 2.82Q61.16 3.17 61.60 3.38Q62.04 3.60 62.70 3.60L62.70 3.60Q63.12 3.60 63.47 3.55Q63.82 3.50 64.08 3.44Q64.34 3.38 64.56 3.29L64.56 3.29ZM60.43 0.27L63.96 0.27Q63.96 0.17 63.92-0.17Q63.88-0.50 63.72-0.87Q63.57-1.23 63.25-1.52Q62.92-1.80 62.39-1.80L62.39-1.80Q61.80-1.80 61.43-1.56Q61.05-1.31 60.82-0.98Q60.60-0.64 60.52-0.29Q60.43 0.06 60.43 0.27L60.43 0.27Z"/></g>
</svg>